<?xml version="1.0" encoding="UTF-8"?>
<svg version="1.1" xmlns="http://www.w3.org/2000/svg" width="1024" height="1024">
<path d="M0 0 C29.15572356 -0.100781 58.31116121 -0.15009253 87.46705917 -0.12847102 C90.91635306 -0.12595808 94.36564708 -0.12387978 97.81494141 -0.12207031 C98.50157645 -0.1217028 99.1882115 -0.12133529 99.89565367 -0.12095664 C110.98479059 -0.11605563 122.07356356 -0.14629074 133.16260451 -0.18972255 C144.55789581 -0.23356375 155.95260132 -0.23841294 167.34797144 -0.2099179 C173.74173766 -0.19514701 180.13441186 -0.19764641 186.52806091 -0.24249649 C192.55650725 -0.28422534 198.58310987 -0.27842661 204.61154366 -0.23747826 C206.8140417 -0.23065714 209.01667195 -0.24062793 211.21899223 -0.26943016 C225.16635618 -0.43975716 234.2182525 1.25536287 245.38351536 9.83891225 C247.76799648 11.55163612 250.34360641 12.76754748 253 14 C254.22300265 14.66859705 255.44036523 15.34775735 256.6484375 16.04296875 C257.56689453 16.56987305 257.56689453 16.56987305 258.50390625 17.10742188 C259.12136719 17.46384766 259.73882813 17.82027344 260.375 18.1875 C261.01566406 18.55552734 261.65632813 18.92355469 262.31640625 19.30273438 C263.87846119 20.20033311 265.43935295 21.0999556 267 22 C267 22.66 267 23.32 267 24 C268.175625 24.2165625 268.175625 24.2165625 269.375 24.4375 C272 25 272 25 274 26 C274 26.66 274 27.32 274 28 C275.2065625 28.309375 275.2065625 28.309375 276.4375 28.625 C280.34445864 30.13294895 283.3198239 32.16270419 286.7421875 34.53515625 C289.71587376 36.46445097 292.69593925 37.73461503 296 39 C296 39.66 296 40.32 296 41 C297.175625 41.185625 297.175625 41.185625 298.375 41.375 C301 42 301 42 303 44 C304.66375416 51.53888604 304.05020374 59.37248836 303.9609375 67.04492188 C303.66733336 85.43880595 303.66733336 85.43880595 312.73046875 100.8828125 C314.14015617 102.26906093 315.56831076 103.63648643 317 105 C317 105.66 317 106.32 317 107 C317.55945313 107.23847656 318.11890625 107.47695313 318.6953125 107.72265625 C321.51587137 109.28591515 323.53600635 111.21581151 325.875 113.4375 C333.16331199 120.18702548 340.98321514 126.22059907 348.9140625 132.1953125 C349.60242188 132.79085937 350.29078125 133.38640625 351 134 C351 134.66 351 135.32 351 136 C351.639375 136.268125 352.27875 136.53625 352.9375 136.8125 C355 138 355 138 356 141 C356.06937062 143.22818441 356.08457084 145.45834524 356.0625 147.6875 C356.05347656 148.86699219 356.04445313 150.04648437 356.03515625 151.26171875 C356.01775391 152.61716797 356.01775391 152.61716797 356 154 C356.66 154 357.32 154 358 154 C359.1712848 155.14991099 360.33708853 156.30593634 361.47460938 157.48925781 C364.36412587 160.35102607 367.58185515 162.83125037 370.75 165.375 C371.45938721 165.94863281 372.16877441 166.52226562 372.8996582 167.11328125 C376.62839793 170.12116824 380.38342727 173.08760705 384.1875 176 C387.38517964 178.45836649 390.14577055 181.14577055 393 184 C395.63968937 186.10848253 398.30306344 188.18029515 400.98828125 190.23046875 C401.98408203 191.10638672 401.98408203 191.10638672 403 192 C403 192.66 403 193.32 403 194 C403.70511719 194.23203125 404.41023438 194.4640625 405.13671875 194.703125 C408.5815178 196.26338869 410.9804081 198.24775013 413.8125 200.75 C414.78832031 201.59046875 415.76414062 202.4309375 416.76953125 203.296875 C419 206 419 206 419.48046875 209.0625 C418.97374313 212.16052984 418.27781393 213.6967566 416.5 216.25 C413.48916296 220.95088237 411.21346946 225.76813409 409 230.875 C406.28026189 237.14357018 403.40254936 243.27001716 400.2890625 249.35546875 C399.09242708 251.81038445 398.0865204 254.25820014 397.125 256.8125 C395.73144403 260.49924934 393.99251286 263.81651711 392.0234375 267.22924805 C388.61855839 273.17324227 386.49827849 278.18477528 385.625 285 C384.37701537 294.29635095 379.58459914 300.68716277 374 308 C373.42507813 308.79148437 372.85015625 309.58296875 372.2578125 310.3984375 C370.87156421 312.29422571 369.44897983 314.15185217 368 316 C366.87449307 317.43710313 365.74952297 318.8746268 364.625 320.3125 C363.75101563 321.42044922 363.75101563 321.42044922 362.859375 322.55078125 C361.51121132 324.3266187 360.21534096 326.14254742 358.953125 327.98046875 C358.26734375 328.97691406 357.5815625 329.97335937 356.875 331 C356.25367188 331.928125 355.63234375 332.85625 354.9921875 333.8125 C352.65561552 336.37814767 351.42691106 336.83364509 348 337 C345.01036129 335.65466258 343.11686571 334.12131169 340.84375 331.76171875 C337.4510735 328.46690792 333.80762589 325.72999316 330 322.9375 C328.60362681 321.90567811 327.20778129 320.87314169 325.8125 319.83984375 C325.15048584 319.35080566 324.48847168 318.86176758 323.80639648 318.35791016 C322.31520438 317.23694645 320.85768858 316.07133355 319.41015625 314.89453125 C316.53381747 312.63355182 313.53867422 310.69047981 310.4375 308.75 C309.32246094 308.04359375 308.20742188 307.3371875 307.05859375 306.609375 C303.9860495 304.68956449 303.9860495 304.68956449 300 305 C300 305.66 300 306.32 300 307 C299.01 307 298.02 307 297 307 C296.67 307.66 296.34 308.32 296 309 C293.35139573 309.59355614 290.70802678 309.74209269 288 310 C287.4316616 314.38432484 286.93056742 318.69867315 287 323.125 C287 327.84508537 286.72648549 332.16522422 284.97789001 336.58139038 C283.67557402 341.13416208 283.7158977 345.36074653 283.72875977 350.07275391 C283.72353302 351.07182266 283.71830627 352.07089142 283.71292114 353.10023499 C283.70270406 355.26257385 283.69690475 357.42493715 283.69503975 359.58729935 C283.69137223 363.0082979 283.6746366 366.4290076 283.65428162 369.84994507 C283.59889284 379.573737 283.56812706 389.29757053 283.54370117 399.02148438 C283.52784793 404.97421954 283.49765809 410.92674747 283.45893669 416.87937546 C283.44727291 419.14799174 283.44135622 421.41664503 283.44125557 423.68529129 C283.44106403 426.85242703 283.42283627 430.0189884 283.40063477 433.18603516 C283.40521194 434.12535385 283.40978912 435.06467255 283.414505 436.03245544 C283.34382672 442.35819861 283.34382672 442.35819861 281.59996033 445.6133728 C280 447 280 447 278 447 C277.72800781 447.58910156 277.45601562 448.17820312 277.17578125 448.78515625 C274.24722814 454.30173304 269.37233807 458.62766193 265 463 C264.34 463.845625 263.68 464.69125 263 465.5625 C261 468 261 468 258.64453125 469.828125 C255.90204673 472.08044611 253.88326461 474.40566293 251.6875 477.1875 C250.88957031 478.14785156 250.09164062 479.10820313 249.26953125 480.09765625 C246.98903049 482.87526459 246.98903049 482.87526459 245.44921875 485.68359375 C243.47395442 488.74696895 242.21130921 490.19021892 239 492 C232.1904466 493.2290859 225.22063363 493.09606415 218.32495117 492.9375 C215.84088392 492.89158314 215.84088392 492.89158314 213 494 C213 494.66 213 495.32 213 496 C210.85483823 496.08238886 208.70871347 496.13980637 206.5625 496.1875 C205.36753906 496.22230469 204.17257812 496.25710938 202.94140625 496.29296875 C199 496 199 496 195.39039612 494.50871277 C187.84747339 491.93338893 179.68834735 492.55983095 171.81225586 492.56762695 C169.96858059 492.55860126 168.12491131 492.54827207 166.28125 492.53674316 C161.29638874 492.50924188 156.31164155 492.49989798 151.32671428 492.49388909 C146.10965531 492.48448753 140.89268094 492.45828269 135.67567444 492.43388367 C125.80556091 492.39026401 115.93546385 492.36168919 106.06528336 492.33856028 C94.8246109 492.31148431 83.58402375 492.26757427 72.34341228 492.22227156 C49.22898781 492.12949021 26.11453659 492.05777966 3 492 C2.88301139 468.23396079 2.79493578 444.46796497 2.74093914 420.70169544 C2.71519712 409.66569688 2.68012323 398.6298776 2.62280273 387.59399414 C2.57284513 377.97106622 2.54067992 368.34826819 2.52955753 358.72521418 C2.52305968 353.63349264 2.50787171 348.5421426 2.47134972 343.45054054 C2.43719476 338.649645 2.42698612 333.84927097 2.43446159 329.04826546 C2.43309571 327.29439705 2.42328008 325.54050964 2.40397263 323.78674698 C2.29777096 313.63475385 2.41456198 303.91499673 8 295 C10.28847345 293.5972689 11.99068544 292.95333243 14.62109375 292.4921875 C19.42823388 291.49760678 22.29935079 289.96993788 25.1953125 285.9609375 C25.85693924 284.77570934 26.49966938 283.57977274 27.125 282.375 C27.46265381 281.75052979 27.80030762 281.12605957 28.14819336 280.48266602 C29.11986683 278.66520295 30.06367096 276.83586818 31 275 C31.47308594 274.09378906 31.94617188 273.18757813 32.43359375 272.25390625 C33.99015246 269.05999858 35 266.76478532 35 263.1875 C34.1114621 260.83678634 34.1114621 260.83678634 31.875 259.1875 C30 257 30 257 29.9609375 254.97265625 C30.22155181 252.96874354 30.60369078 250.9815461 31 249 C30.34 248.67 29.68 248.34 29 248 C29.185625 247.236875 29.37125 246.47375 29.5625 245.6875 C30.22819173 242.91032625 30.22819173 242.91032625 29 240 C26.6926096 238.04112668 26.6926096 238.04112668 23.875 236.125 C22.885 235.42375 21.895 234.7225 20.875 234 C19.16709119 232.81188952 17.45887576 231.62421928 15.75 230.4375 C11.08653846 227.17307692 11.08653846 227.17307692 10 225 C9.88903881 223.51520839 9.83876967 222.02566841 9.81918335 220.53686523 C9.80480225 219.5977681 9.79042114 218.65867096 9.77560425 217.69111633 C9.76506012 216.65738388 9.75451599 215.62365143 9.74365234 214.55859375 C9.72904968 213.47221115 9.71444702 212.38582855 9.69940186 211.26652527 C9.56483121 200.55844552 9.49711436 189.84954127 9.44101369 179.14080048 C9.40486168 172.39878031 9.33478459 165.6581786 9.23701131 158.91677952 C9.15505543 153.06702176 9.12282622 147.21773491 9.10716629 141.36746216 C9.09309007 138.88593926 9.0634919 136.40445264 9.01786423 133.92330933 C8.63527336 112.04547788 8.63527336 112.04547788 14.28369141 105.671875 C15.81503767 104.3972927 17.38696968 103.16949331 19 102 C20.47738723 100.56097283 21.93874266 99.10508009 23.375 97.625 C24.00148438 97.01914062 24.62796875 96.41328125 25.2734375 95.7890625 C27.0754655 94.00747168 27.0754655 94.00747168 28.6015625 91.7734375 C29.06304687 91.18820312 29.52453125 90.60296875 30 90 C30.66 90 31.32 90 32 90 C32.2371875 89.43410156 32.474375 88.86820312 32.71875 88.28515625 C34.28098524 85.49885254 36.19737443 83.64667486 38.5 81.4375 C41.02809153 79.0038015 43.04672934 76.92990599 45 74 C45.66 74 46.32 74 47 74 C47.226875 73.46375 47.45375 72.9275 47.6875 72.375 C49 70 49 70 51.625 67.125 C54.22400444 64.21814392 54.22400444 64.21814392 54.5 60.8125 C54.21371878 58.00238922 54.21371878 58.00238922 52.625 56.125 C51.05533986 54.81026334 51.05533986 54.81026334 49 55 C47.33333333 53.33333333 45.66666667 51.66666667 44 50 C43.05125 49.401875 42.1025 48.80375 41.125 48.1875 C36.35432811 44.84802968 31.8687522 40.6062566 30 35 C28.67353844 34.3197633 27.33906335 33.65508135 26 33 C24.078125 31.125 24.078125 31.125 22.25 29 C21.63640625 28.29875 21.0228125 27.5975 20.390625 26.875 C19 25 19 25 19 23 C18.14728516 22.65775391 18.14728516 22.65775391 17.27734375 22.30859375 C13.50198145 20.13921747 11.10378304 16.70168467 8.31640625 13.41015625 C6.02084298 11.02168655 3.83599696 9.66182794 1 8 C-1 5 -1 5 -0.625 2.3125 C-0.41875 1.549375 -0.2125 0.78625 0 0 Z " fill="#F9F9F8" transform="translate(311,255)"/>
<path d="M0 0 C29.15572356 -0.100781 58.31116121 -0.15009253 87.46705917 -0.12847102 C90.91635306 -0.12595808 94.36564708 -0.12387978 97.81494141 -0.12207031 C98.50157645 -0.1217028 99.1882115 -0.12133529 99.89565367 -0.12095664 C110.98479059 -0.11605563 122.07356356 -0.14629074 133.16260451 -0.18972255 C144.55789581 -0.23356375 155.95260132 -0.23841294 167.34797144 -0.2099179 C173.74173766 -0.19514701 180.13441186 -0.19764641 186.52806091 -0.24249649 C192.55650725 -0.28422534 198.58310987 -0.27842661 204.61154366 -0.23747826 C206.8140417 -0.23065714 209.01667195 -0.24062793 211.21899223 -0.26943016 C225.16635618 -0.43975716 234.2182525 1.25536287 245.38351536 9.83891225 C247.76799648 11.55163612 250.34360641 12.76754748 253 14 C254.22300265 14.66859705 255.44036523 15.34775735 256.6484375 16.04296875 C257.56689453 16.56987305 257.56689453 16.56987305 258.50390625 17.10742188 C259.12136719 17.46384766 259.73882813 17.82027344 260.375 18.1875 C261.01566406 18.55552734 261.65632813 18.92355469 262.31640625 19.30273438 C263.87846119 20.20033311 265.43935295 21.0999556 267 22 C267 22.66 267 23.32 267 24 C268.175625 24.2165625 268.175625 24.2165625 269.375 24.4375 C272 25 272 25 274 26 C274 26.66 274 27.32 274 28 C275.2065625 28.309375 275.2065625 28.309375 276.4375 28.625 C280.34445864 30.13294895 283.3198239 32.16270419 286.7421875 34.53515625 C289.71587376 36.46445097 292.69593925 37.73461503 296 39 C296 39.66 296 40.32 296 41 C297.175625 41.185625 297.175625 41.185625 298.375 41.375 C301 42 301 42 303 44 C304.66375416 51.53888604 304.05020374 59.37248836 303.9609375 67.04492188 C303.66733336 85.43880595 303.66733336 85.43880595 312.73046875 100.8828125 C314.14015617 102.26906093 315.56831076 103.63648643 317 105 C317 105.66 317 106.32 317 107 C317.55945313 107.23847656 318.11890625 107.47695313 318.6953125 107.72265625 C321.51587137 109.28591515 323.53600635 111.21581151 325.875 113.4375 C333.16331199 120.18702548 340.98321514 126.22059907 348.9140625 132.1953125 C349.60242188 132.79085937 350.29078125 133.38640625 351 134 C351 134.66 351 135.32 351 136 C351.639375 136.268125 352.27875 136.53625 352.9375 136.8125 C355 138 355 138 356 141 C356.06937062 143.22818441 356.08457084 145.45834524 356.0625 147.6875 C356.05347656 148.86699219 356.04445313 150.04648437 356.03515625 151.26171875 C356.01775391 152.61716797 356.01775391 152.61716797 356 154 C356.66 154 357.32 154 358 154 C359.1712848 155.14991099 360.33708853 156.30593634 361.47460938 157.48925781 C364.36412587 160.35102607 367.58185515 162.83125037 370.75 165.375 C371.45938721 165.94863281 372.16877441 166.52226562 372.8996582 167.11328125 C376.62839793 170.12116824 380.38342727 173.08760705 384.1875 176 C387.38517964 178.45836649 390.14577055 181.14577055 393 184 C395.63968937 186.10848253 398.30306344 188.18029515 400.98828125 190.23046875 C401.98408203 191.10638672 401.98408203 191.10638672 403 192 C403 192.66 403 193.32 403 194 C403.70511719 194.23203125 404.41023438 194.4640625 405.13671875 194.703125 C408.5815178 196.26338869 410.9804081 198.24775013 413.8125 200.75 C414.78832031 201.59046875 415.76414062 202.4309375 416.76953125 203.296875 C419 206 419 206 419.48046875 209.0625 C418.97374313 212.16052984 418.27781393 213.6967566 416.5 216.25 C413.48916296 220.95088237 411.21346946 225.76813409 409 230.875 C406.28026189 237.14357018 403.40254936 243.27001716 400.2890625 249.35546875 C399.09242708 251.81038445 398.0865204 254.25820014 397.125 256.8125 C395.73144403 260.49924934 393.99251286 263.81651711 392.0234375 267.22924805 C388.61855839 273.17324227 386.49827849 278.18477528 385.625 285 C384.37701537 294.29635095 379.58459914 300.68716277 374 308 C373.42507813 308.79148437 372.85015625 309.58296875 372.2578125 310.3984375 C370.87156421 312.29422571 369.44897983 314.15185217 368 316 C366.87449307 317.43710313 365.74952297 318.8746268 364.625 320.3125 C363.75101563 321.42044922 363.75101563 321.42044922 362.859375 322.55078125 C361.51121132 324.3266187 360.21534096 326.14254742 358.953125 327.98046875 C358.26734375 328.97691406 357.5815625 329.97335937 356.875 331 C356.25367188 331.928125 355.63234375 332.85625 354.9921875 333.8125 C352.65561552 336.37814767 351.42691106 336.83364509 348 337 C345.01036129 335.65466258 343.11686571 334.12131169 340.84375 331.76171875 C337.4510735 328.46690792 333.80762589 325.72999316 330 322.9375 C328.60362681 321.90567811 327.20778129 320.87314169 325.8125 319.83984375 C325.15048584 319.35080566 324.48847168 318.86176758 323.80639648 318.35791016 C322.31520438 317.23694645 320.85768858 316.07133355 319.41015625 314.89453125 C316.53381747 312.63355182 313.53867422 310.69047981 310.4375 308.75 C309.32246094 308.04359375 308.20742188 307.3371875 307.05859375 306.609375 C303.9860495 304.68956449 303.9860495 304.68956449 300 305 C300 305.66 300 306.32 300 307 C299.01 307 298.02 307 297 307 C296.67 307.66 296.34 308.32 296 309 C293.35139573 309.59355614 290.70802678 309.74209269 288 310 C287.4316616 314.38432484 286.93056742 318.69867315 287 323.125 C287 327.84508537 286.72648549 332.16522422 284.97789001 336.58139038 C283.67557402 341.13416208 283.7158977 345.36074653 283.72875977 350.07275391 C283.72353302 351.07182266 283.71830627 352.07089142 283.71292114 353.10023499 C283.70270406 355.26257385 283.69690475 357.42493715 283.69503975 359.58729935 C283.69137223 363.0082979 283.6746366 366.4290076 283.65428162 369.84994507 C283.59889284 379.573737 283.56812706 389.29757053 283.54370117 399.02148438 C283.52784793 404.97421954 283.49765809 410.92674747 283.45893669 416.87937546 C283.44727291 419.14799174 283.44135622 421.41664503 283.44125557 423.68529129 C283.44106403 426.85242703 283.42283627 430.0189884 283.40063477 433.18603516 C283.40521194 434.12535385 283.40978912 435.06467255 283.414505 436.03245544 C283.34382672 442.35819861 283.34382672 442.35819861 281.59996033 445.6133728 C280 447 280 447 278 447 C279.875 443.125 279.875 443.125 281 442 C281.10746312 440.62170185 281.14679331 439.23800949 281.15821838 437.85557556 C281.1680072 436.96230057 281.17779602 436.06902557 281.18788147 435.14868164 C281.19363693 434.16109863 281.1993924 433.17351562 281.20532227 432.15600586 C281.21522186 431.12198135 281.22512146 430.08795685 281.23532104 429.02259827 C281.26704213 425.58670381 281.29173524 422.15079549 281.31640625 418.71484375 C281.33696663 416.339723 281.35796284 413.96460598 281.37937927 411.5894928 C281.43469461 405.32427995 281.48406202 399.05903357 281.53222656 392.79376221 C281.58237268 386.40609741 281.63809462 380.01848158 281.69335938 373.63085938 C281.80105661 361.08728166 281.9026649 348.54366218 282 336 C281.39816895 335.87270508 280.79633789 335.74541016 280.17626953 335.61425781 C276.94971313 334.70355376 274.53312353 332.71942961 271.875 330.75 C271.26809326 330.30817383 270.66118652 329.86634766 270.03588867 329.41113281 C268.71512921 328.44955205 267.39610441 327.48558521 266.07861328 326.51953125 C263.97508816 324.98178867 261.86233289 323.45768997 259.74609375 321.9375 C247.95860805 313.4676624 236.27705878 304.85662762 224.60449219 296.22949219 C215.36195339 289.40034581 206.0961172 282.6079307 196.76928711 275.89428711 C190.5137479 271.38568587 184.30681654 266.81319395 178.10546875 262.23046875 C172.76142324 258.28584596 167.39089219 254.38030944 162 250.5 C155.80345586 246.03979047 149.64023977 241.53740365 143.5 237 C134.38251634 230.26446941 125.20059231 223.62136363 116 217 C114.5129343 215.92980773 113.02595521 214.85949511 111.5390625 213.7890625 C110.84075317 213.28815598 110.14244385 212.78724945 109.42297363 212.27116394 C107.93773458 211.19605156 106.46021912 210.11010507 104.99420166 209.00892639 C101.11750981 206.11911261 97.28746977 203.55537365 93.00048828 201.31176758 C86.67702713 197.7754361 80.37010745 194.1706207 78.00424194 186.96890259 C76.62642529 178.37272744 77.26648415 169.77124496 77.8125 161.125 C77.90794194 158.49119134 77.99461037 155.85704933 78.07226562 153.22265625 C78.2642554 146.80009308 78.63503605 140.42421919 79 134 C92.86 134 106.72 134 121 134 C121.99 131.03 121.99 131.03 123 128 C123.84684053 126.20331359 124.73570016 124.42597953 125.66015625 122.66796875 C126.19874268 121.63728271 126.7373291 120.60659668 127.29223633 119.54467773 C127.87642334 118.43680908 128.46061035 117.32894043 129.0625 116.1875 C129.99213897 114.41023811 130.92175466 112.63296387 131.85050964 110.85523987 C132.50968391 109.59377649 133.16937338 108.33258222 133.82954407 107.07164001 C137.64193826 99.78636371 141.40473265 92.47561358 145.16671753 85.16421509 C146.30274891 82.95645029 147.4394892 80.74905184 148.57641602 78.54174805 C149.27623243 77.18279437 149.97602217 75.82382695 150.67578125 74.46484375 C151.1592099 73.52605377 151.1592099 73.52605377 151.65240479 72.56829834 C152.77699878 70.38309917 153.90091619 68.19816762 155 66 C142.08229033 65.96850916 129.16519465 65.97459314 116.24754238 66.02846622 C110.24908175 66.05230602 104.25117665 66.06326884 98.25268555 66.04467773 C92.46219786 66.02720713 86.67270765 66.04372584 80.88234138 66.08367729 C78.67481264 66.09296168 76.46719747 66.09005937 74.25970268 66.07469368 C71.16347933 66.05523673 68.07039775 66.07935619 64.97436523 66.11352539 C64.06445831 66.0977092 63.15455139 66.08189301 62.21707153 66.06559753 C57.11827114 66.17366093 54.55438428 66.90324336 50.87660217 70.55540466 C49.89331512 71.68276127 48.92515843 72.82447109 48 74 C48 70.39750384 48.56506566 70.13934361 51 67.6875 C53.29440516 65.12188856 53.95638115 64.25202001 54.5625 60.75 C53.95523824 57.7811647 53.47148435 56.71102762 51 55 C50.34 55 49.68 55 49 55 C47.33333333 53.33333333 45.66666667 51.66666667 44 50 C43.05125 49.401875 42.1025 48.80375 41.125 48.1875 C36.35432811 44.84802968 31.8687522 40.6062566 30 35 C28.67353844 34.3197633 27.33906335 33.65508135 26 33 C24.078125 31.125 24.078125 31.125 22.25 29 C21.63640625 28.29875 21.0228125 27.5975 20.390625 26.875 C19 25 19 25 19 23 C18.14728516 22.65775391 18.14728516 22.65775391 17.27734375 22.30859375 C13.50198145 20.13921747 11.10378304 16.70168467 8.31640625 13.41015625 C6.02084298 11.02168655 3.83599696 9.66182794 1 8 C-1 5 -1 5 -0.625 2.3125 C-0.41875 1.549375 -0.2125 0.78625 0 0 Z " fill="#FCFCFB" transform="translate(311,255)"/>
<path d="M0 0 C1.46413078 -0.0010952 1.46413078 -0.0010952 2.95783997 -0.00221252 C6.17778474 0.00126542 9.39627535 0.04013776 12.6159668 0.0793457 C14.8508373 0.08867305 17.08571803 0.09578953 19.32060242 0.1007843 C25.19809272 0.11985999 31.07496362 0.16896666 36.95220947 0.2243042 C42.95137147 0.27548381 48.95063371 0.29829565 54.94995117 0.32348633 C66.7178012 0.37708406 78.48519183 0.46240453 90.25268555 0.56762695 C89.08594074 4.12563322 87.90470569 7.51411307 86.22143555 10.8605957 C85.82843262 11.64539307 85.43542969 12.43019043 85.03051758 13.23876953 C84.39799072 14.48436646 84.39799072 14.48436646 83.75268555 15.75512695 C83.30908691 16.63515381 82.86548828 17.51518066 82.40844727 18.421875 C78.66066691 25.82807677 74.81018091 33.17835391 70.92456055 40.51293945 C67.79953177 46.41339334 64.71371856 52.33421059 61.62768555 58.25512695 C59.85393555 61.65825195 58.08018555 65.06137695 56.25268555 68.56762695 C42.39268555 68.56762695 28.53268555 68.56762695 14.25268555 68.56762695 C13.98055093 76.31832902 13.76606845 84.02985184 13.69116211 91.77929688 C13.64920446 94.40729792 13.57520733 97.03500346 13.4675293 99.66113281 C12.39446843 113.9281777 12.39446843 113.9281777 16.94189453 126.97286987 C21.11202642 131.05814726 25.90530757 133.83112442 31.09112549 136.44552612 C33.84713485 137.87621521 36.23314567 139.63676098 38.67456055 141.5480957 C39.4015918 142.0862793 40.12862305 142.62446289 40.87768555 143.17895508 C41.57893555 143.6990918 42.28018555 144.21922852 43.00268555 144.75512695 C48.38848906 148.73727743 53.78976185 152.69190406 59.25268555 156.56762695 C64.71562766 160.44336291 70.1161664 164.39892815 75.50268555 168.38012695 C84.70307245 175.17889149 93.96747709 181.88536787 103.25268555 188.56762695 C116.45251846 198.06711249 129.5699357 207.67206011 142.64819336 217.33813477 C151.89073216 224.16728114 161.15656834 230.95969625 170.48339844 237.67333984 C175.93376054 241.60161981 181.34920405 245.57516488 186.75268555 249.56762695 C193.24061501 254.35502606 199.73386372 259.13484693 206.25268555 263.88012695 C207.01258789 264.43764648 207.77249023 264.99516602 208.55541992 265.56958008 C209.61212891 266.33625 209.61212891 266.33625 210.69018555 267.1184082 C211.30764648 267.56869385 211.92510742 268.01897949 212.5612793 268.48291016 C214.37863209 269.74624382 214.37863209 269.74624382 217.25268555 270.56762695 C217.32273876 284.33646059 217.37545619 298.10526663 217.40812206 311.87424183 C217.4237977 318.26729818 217.44507074 324.66023507 217.47900391 331.05322266 C217.51152944 337.2193946 217.52952425 343.38545141 217.53731728 349.5517025 C217.54287302 351.90770977 217.55372158 354.26371053 217.56987572 356.61966896 C217.59155923 359.91211333 217.59465624 363.20407809 217.59326172 366.49658203 C217.60944046 367.96717072 217.60944046 367.96717072 217.62594604 369.46746826 C217.62182205 370.36349258 217.61769806 371.25951691 217.6134491 372.18269348 C217.61621448 372.96160855 217.61897985 373.74052362 217.62182903 374.54304218 C217.15777617 377.0881619 216.14694487 377.87426869 214.25268555 379.56762695 C214.00518555 380.28950195 213.75768555 381.01137695 213.50268555 381.75512695 C210.71450706 388.02852855 205.04312516 392.77718734 200.25268555 397.56762695 C199.63780273 398.36813477 199.02291992 399.16864258 198.3894043 399.9934082 C196.32176244 402.48440635 194.35166794 404.16170653 191.75268555 406.06762695 C187.30708262 409.52605427 183.48635529 413.30425441 179.69018555 417.44262695 C179.16553711 418.01432617 178.64088867 418.58602539 178.1003418 419.17504883 C175.37159677 422.15396633 175.37159677 422.15396633 173.25268555 425.56762695 C165.33268555 425.56762695 157.41268555 425.56762695 149.25268555 425.56762695 C149.32189209 422.06637207 149.39109863 418.56511719 149.46240234 414.95776367 C149.67779308 403.35135732 149.78841545 391.74522995 149.84596539 380.13712883 C149.88337003 373.10258448 149.9557913 366.07178399 150.11328125 359.03881836 C150.26536922 352.24255047 150.31637476 345.45132227 150.30753517 338.65338516 C150.32035111 336.06886079 150.3662595 333.48426906 150.44675255 330.90096664 C151.25540172 317.35546265 151.25540172 317.35546265 146.44107437 305.16275787 C142.04722496 300.92836459 137.10836875 297.89793064 131.76589394 295.00613785 C127.4955749 292.56189149 123.65904761 289.54645718 119.75268555 286.56762695 C118.17124383 285.39839744 116.58812655 284.23142778 115.00268555 283.06762695 C105.50268555 276.06762695 105.50268555 276.06762695 103.12744141 274.31738281 C101.5450037 273.15141889 99.96248423 271.98556592 98.37988281 270.81982422 C94.40716668 267.89331252 90.43591561 264.96485161 86.4675293 262.0324707 C78.02306424 255.79570893 69.55140033 249.60081911 61.03076172 243.46850586 C55.49268077 239.47750016 49.99202659 235.43784785 44.50268555 231.38012695 C38.57243787 226.99690041 32.61431924 222.66108924 26.59936523 218.39501953 C21.60723162 214.8441446 16.67870046 211.20948275 11.75268555 207.56762695 C6.25929454 203.50743609 0.75657159 199.46478848 -4.80981445 195.50512695 C-5.35911621 195.11437988 -5.90841797 194.72363281 -6.47436523 194.32104492 C-7.03236816 193.9241748 -7.59037109 193.52730469 -8.1652832 193.1184082 C-12.32795411 190.15747821 -16.47749995 187.17849194 -20.62231445 184.19262695 C-21.37754395 183.64936768 -22.13277344 183.1061084 -22.91088867 182.54638672 C-26.71136069 179.80178179 -30.48087658 177.02537763 -34.2043457 174.17700195 C-34.91671387 173.63350098 -35.62908203 173.09 -36.36303711 172.5300293 C-37.69986111 171.50575052 -39.03195456 170.47525378 -40.3581543 169.43725586 C-43.33822261 167.1537241 -46.08161843 165.3146698 -49.5793457 163.91918945 C-52.74731445 162.56762695 -52.74731445 162.56762695 -54.74731445 159.56762695 C-55.01854992 157.46165371 -55.01854992 157.46165371 -55.04838562 154.98423767 C-55.06414139 154.04376587 -55.07989716 153.10329407 -55.09613037 152.13432312 C-55.10307922 151.10418594 -55.11002808 150.07404877 -55.1171875 149.01269531 C-55.13193619 147.92616669 -55.14668488 146.83963806 -55.16188049 145.72018433 C-55.2064859 142.11595601 -55.23465369 138.51189011 -55.2590332 134.9074707 C-55.26843241 133.67602388 -55.27783161 132.44457706 -55.28751564 131.17581367 C-55.33021194 125.32708627 -55.36401205 119.47842436 -55.38514966 113.62957853 C-55.40993958 106.89599922 -55.4712395 100.16403996 -55.56365174 93.43105787 C-55.64110791 87.58606465 -55.66866652 81.74160974 -55.67908669 75.89615059 C-55.69065358 73.41743759 -55.71745973 70.93874567 -55.76001549 68.46037102 C-56.11273943 46.61872423 -56.11273943 46.61872423 -50.46142578 40.24169922 C-48.9307416 38.96652141 -47.35954969 37.73799872 -45.74731445 36.56762695 C-44.27001192 35.12851284 -42.8086713 33.67261047 -41.37231445 32.19262695 C-40.74583008 31.58676758 -40.1193457 30.9809082 -39.47387695 30.35668945 C-37.67184895 28.57509864 -37.67184895 28.57509864 -36.14575195 26.34106445 C-35.68426758 25.75583008 -35.2227832 25.1705957 -34.74731445 24.56762695 C-34.08731445 24.56762695 -33.42731445 24.56762695 -32.74731445 24.56762695 C-32.51012695 24.00172852 -32.27293945 23.43583008 -32.02856445 22.8527832 C-30.46632921 20.06647949 -28.54994003 18.21430181 -26.24731445 16.00512695 C-23.71922292 13.57142845 -21.70058511 11.49753294 -19.74731445 8.56762695 C-18.98418945 8.11387695 -18.22106445 7.66012695 -17.43481445 7.19262695 C-14.60566166 5.69219242 -14.60566166 5.69219242 -12.68855286 3.00154114 C-8.51174814 -0.45482073 -5.26469925 -0.10319539 0 0 Z " fill="#153155" transform="translate(375.747314453125,320.432373046875)"/>
<path d="M0 0 C7.75478335 -0.28132134 15.50831583 -0.4928622 23.26695728 -0.62174606 C26.87230183 -0.68369463 30.47409366 -0.76727872 34.07739258 -0.90527344 C51.50942966 -1.55475891 65.03376503 -1.06959473 79.07681274 10.45501709 C81.93841571 12.75387159 85.00793694 14.67573663 88.10546875 16.63671875 C90.1343754 17.9846296 92.16177672 19.3348097 94.1875 20.6875 C95.24646484 21.38810547 96.30542969 22.08871094 97.39648438 22.81054688 C98.39357422 23.47505859 99.39066406 24.13957031 100.41796875 24.82421875 C101.30250732 25.41291748 102.1870459 26.00161621 103.09838867 26.6081543 C104.03968628 27.29711792 104.03968628 27.29711792 105 28 C105 28.33 105 28.66 105 29 C93.66024969 28.24309076 82.36363987 27.0705246 71.06079102 25.89819336 C67.80986716 25.56222791 64.55828475 25.23320838 61.30664062 24.90429688 C59.21089339 24.68792687 57.11518871 24.47114414 55.01953125 24.25390625 C54.06198441 24.15799698 53.10443756 24.06208771 52.11787415 23.96327209 C45.99138126 23.31795198 40.01820431 22.31530089 34 21 C33.73468979 21.9488205 33.73468979 21.9488205 33.46401978 22.91680908 C31.40697482 30.19226262 28.66354228 37.12957528 25.8125 44.125 C25.34908203 45.27226562 24.88566406 46.41953125 24.40820312 47.6015625 C23.27608834 50.40267125 22.13995466 53.20207482 21 56 C21.74080811 56.27908203 22.48161621 56.55816406 23.24487305 56.84570312 C25.72697708 57.88561344 27.82393784 59.01982262 30.08203125 60.46875 C30.84209473 60.95303467 31.6021582 61.43731934 32.38525391 61.9362793 C33.58674072 62.71032104 33.58674072 62.71032104 34.8125 63.5 C36.50364232 64.57984054 38.19505352 65.65926008 39.88671875 66.73828125 C40.73669434 67.28178223 41.58666992 67.8252832 42.46240234 68.38525391 C47.01427583 71.28174142 51.60038885 74.12340698 56.18676758 76.96484375 C60.89272218 79.89272218 60.89272218 79.89272218 62 81 C62.11185549 82.52669613 62.15878458 84.05821505 62.17919922 85.58886719 C62.28464057 91.11467625 62.49521464 96.62959257 62.74072266 102.15087891 C62.82940339 104.52784497 62.88729812 106.90618276 62.91259766 109.28466797 C62.70874172 122.5558581 62.70874172 122.5558581 67.86187744 134.30465698 C72.30021242 138.25765621 77.24253978 141.02643258 82.53349304 143.67532349 C86.68166218 145.90316323 90.36891049 148.73897506 94.125 151.5625 C95.60646372 152.64283515 97.0893433 153.72123394 98.57421875 154.796875 C99.30302246 155.32603516 100.03182617 155.85519531 100.78271484 156.40039062 C104.47990736 159.06764512 108.20829546 161.69027951 111.9375 164.3125 C118.33751691 168.81392617 124.69308834 173.36857459 131 178 C130.33341344 183.84850354 128.90496691 189.29584892 127.25 194.9375 C126.98268066 195.86119385 126.71536133 196.7848877 126.43994141 197.73657227 C124.62179156 203.98140445 122.71748038 210.19600193 120.75488281 216.39672852 C116.82787197 228.82752007 113.4754703 241.43702948 110 254 C105.80299609 252.56538776 102.83416336 250.50637819 99.375 247.75 C98.22147543 246.84323846 97.06643385 245.93840458 95.91015625 245.03515625 C95.28512207 244.5467627 94.66008789 244.05836914 94.01611328 243.55517578 C90.32478612 240.70778489 86.56836808 237.94887588 82.8125 235.1875 C81.59989502 234.29562988 81.59989502 234.29562988 80.36279297 233.38574219 C74.19264322 228.85730389 67.9914374 224.37278166 61.77954102 219.90185547 C56.24089077 215.91063566 50.73981257 211.87056945 45.25 207.8125 C39.86354952 203.83121052 34.46294022 199.87573462 29 196 C23.53705788 192.12426404 18.13651915 188.1686988 12.75 184.1875 C4.28764994 177.9341189 -4.22647323 171.75615661 -12.76611328 165.60888672 C-15.76247819 163.45084904 -18.75586523 161.2887029 -21.74902344 159.1262207 C-23.24556265 158.04504416 -24.74230636 156.96415063 -26.23925781 155.88354492 C-30.05432855 153.12946281 -33.86701837 150.37217531 -37.67578125 147.609375 C-46.38019739 141.30017657 -55.12531528 135.06802648 -64 129 C-62.70789835 124.84134833 -61.14008694 121.08624473 -59.12109375 117.23046875 C-58.53956543 116.11389893 -57.95803711 114.9973291 -57.35888672 113.84692383 C-57.04755798 113.254086 -56.73622925 112.66124817 -56.41546631 112.05044556 C-55.40554929 110.12663653 -54.40155556 108.19983292 -53.39892578 106.2722168 C-51.97369798 103.53304491 -50.54662588 100.79484915 -49.11767578 98.05761719 C-37.70127045 76.18637901 -26.54264507 54.19029737 -15.50214386 32.12722397 C-14.50133541 30.12766807 -13.49984752 28.12845369 -12.49822998 26.12930298 C-10.90951714 22.95774565 -9.32310541 19.7850476 -7.73852158 16.6114254 C-6.86042633 14.85369442 -5.98053858 13.09685927 -5.10061646 11.34004211 C-4.3112117 9.75657234 -4.3112117 9.75657234 -3.50585938 8.14111328 C-2.81333069 6.75486252 -2.81333069 6.75486252 -2.10681152 5.34060669 C-0.911152 2.9329127 -0.911152 2.9329127 0 0 Z " fill="#CAA044" transform="translate(485,318)"/>
<path d="M0 0 C4.91299693 2.80742682 8.42336873 4.98859861 12.5625 8.5625 C16.88443827 12.24712388 21.26801771 15.82426039 25.75 19.3125 C30.90728603 23.33265615 35.99976726 27.42395536 41.0625 31.5625 C47.00312603 36.41604163 53.02079021 41.14563829 59.1328125 45.78125 C60.07898438 46.5134375 61.02515625 47.245625 62 48 C63.03705078 48.60352295 64.07410156 49.2070459 65.14257812 49.82885742 C67.38071 51.72024438 67.94839636 52.73949266 68.52511597 55.65090942 C68.69607625 59.10124439 68.67352819 62.50349421 68.5859375 65.95703125 C68.57744781 67.21513107 68.56895813 68.4732309 68.56021118 69.76945496 C68.53234573 73.10281754 68.47852083 76.43368691 68.4119873 79.76635742 C68.35043401 83.17149383 68.32316878 86.57688862 68.29296875 89.98242188 C68.22684317 96.65563408 68.12645835 103.32767318 68 110 C69.02238014 109.96669083 69.02238014 109.96669083 70.06541443 109.93270874 C77.18687271 109.71073871 84.30734279 109.56035866 91.43139648 109.45068359 C94.08800377 109.40617075 96.73916962 109.33244341 99.39526367 109.24560547 C103.22122944 109.12369091 107.04353404 109.06745963 110.87109375 109.0234375 C112.04957382 108.97182465 113.22805389 108.92021179 114.44224548 108.86703491 C119.40503486 108.86368953 122.67967803 108.9422372 126.6394043 112.11453247 C128.92222419 114.64937451 130.97319357 117.25827675 133 120 C134.650128 121.70879922 136.31498472 123.40380378 138.0078125 125.0703125 C138.84957031 125.90433594 139.69132813 126.73835937 140.55859375 127.59765625 C141.40550781 128.43167969 142.25242187 129.26570312 143.125 130.125 C152.62550582 139.48221011 152.62550582 139.48221011 156.21484375 143.71875 C159.55847463 147.61932642 163.16173369 151.22229492 166.80859375 154.8359375 C167.42432251 155.44615753 168.04005127 156.05637756 168.67443848 156.68508911 C171.25300493 159.2358589 173.83521747 161.78287038 176.42163086 164.32568359 C178.32575984 166.19979838 180.22377397 168.07993322 182.12109375 169.9609375 C183.00685341 170.82650772 183.00685341 170.82650772 183.9105072 171.70956421 C185.31195732 173.10221271 186.66159278 174.54665957 188 176 C188 176.66 188 177.32 188 178 C125.96 178 63.92 178 0 178 C0 119.26 0 60.52 0 0 Z " fill="#122F53" transform="translate(316,568)"/>
<path d="M0 0 C28.62779036 -0.43572246 57.25518172 -0.77084312 85.88564935 -0.97024126 C89.28428599 -0.9939978 92.68291608 -1.01859059 96.08154297 -1.04370117 C97.09622824 -1.05117702 97.09622824 -1.05117702 98.13141221 -1.05880389 C109.01015973 -1.14093783 119.88695206 -1.29042749 130.76454896 -1.46590313 C141.96964152 -1.64512127 153.1740801 -1.748017 164.38062143 -1.7876814 C170.65794523 -1.81222039 176.93087355 -1.86886887 183.20677185 -2.00887108 C211.13489806 -2.6075229 233.18900084 -2.22790167 255.95667887 15.25235468 C261.93325556 19.83648741 268.39809818 23.50968234 274.93998432 27.21959651 C278.93258485 29.49249921 282.88782038 31.82530494 286.80957031 34.21850586 C289.96646321 36.08855773 289.96646321 36.08855773 293.46386719 37.28344727 C297.19617662 38.81477087 299.35959726 39.92637943 302 43 C303.98276114 49.88888646 303.11993584 57.37323769 302.75 64.4375 C302.68976811 66.42887649 302.63502193 68.42042694 302.5859375 70.41210938 C302.45405549 75.27904671 302.24728824 80.13761576 302 85 C298.59968295 83.72842777 295.62818991 82.26887591 292.578125 80.3046875 C291.72951904 79.76134766 290.88091309 79.21800781 290.0065918 78.65820312 C289.0969165 78.06974609 288.18724121 77.48128906 287.25 76.875 C286.29714111 76.26333984 285.34428223 75.65167969 284.36254883 75.02148438 C282.31505365 73.70700209 280.26862138 72.390863 278.22314453 71.07324219 C274.9228958 68.95040382 271.61667881 66.83716592 268.30859375 64.7265625 C266.10152778 63.31776273 263.89449576 61.90890976 261.6875 60.5 C260.6572168 59.84241699 259.62693359 59.18483398 258.56542969 58.50732422 C257.57833008 57.87584473 256.59123047 57.24436523 255.57421875 56.59375 C254.71401123 56.04396484 253.85380371 55.49417969 252.9675293 54.92773438 C250 53 250 53 248.42381477 51.52362919 C240.61669778 44.93288821 231.22558085 46.19872735 221.59057617 46.30639648 C219.6154666 46.30641196 217.64035543 46.30371605 215.66525269 46.29852295 C211.42537221 46.2929057 207.18610445 46.30585147 202.94631004 46.33325005 C196.24438558 46.37593989 189.54292448 46.37395958 182.84089661 46.36549377 C169.8323531 46.35499774 156.82410309 46.38767663 143.81562805 46.42678833 C127.23904527 46.47572896 110.66260556 46.51176901 94.08594495 46.49545342 C87.42072641 46.49047408 80.75618719 46.51051194 74.09108865 46.54979122 C69.95216813 46.56938324 65.8134346 46.56854428 61.67448044 46.56217957 C59.75234573 46.56351912 57.83019518 46.57349932 55.90815544 46.59265327 C53.28858774 46.61762337 50.6708054 46.61206537 48.05119324 46.59886169 C47.28690307 46.61362767 46.52261291 46.62839365 45.73516244 46.64360708 C41.94413169 46.59105942 40.37199763 46.37807254 37.66476917 43.62663364 C37.11539535 42.75984454 36.56602152 41.89305544 36 41 C35.113125 40.13375 34.22625 39.2675 33.3125 38.375 C31 36 31 36 30 33 C28.67353844 32.3197633 27.33906335 31.65508135 26 31 C24.078125 29.125 24.078125 29.125 22.25 27 C21.63640625 26.29875 21.0228125 25.5975 20.390625 24.875 C19 23 19 23 19 21 C18.43410156 20.76925781 17.86820312 20.53851563 17.28515625 20.30078125 C14.41034158 18.66434829 12.62898122 16.66079606 10.4375 14.1875 C9.67308594 13.33542969 8.90867187 12.48335938 8.12109375 11.60546875 C6 9 6 9 4.41015625 6.30078125 C3.06019988 3.73713081 3.06019988 3.73713081 0 2 C0 1.34 0 0.68 0 0 Z " fill="#163358" transform="translate(311,257)"/>
<path d="M0 0 C11.20561136 5.42568617 21.13793367 14.35951246 30.97631836 21.90283203 C36.5877916 26.19446104 42.25264654 30.39245179 48 34.5 C55.48227291 39.85031251 62.80710633 45.3875174 70.10668945 50.98388672 C75.91821707 55.43311243 81.77945953 59.80493949 87.6875 64.125 C93.87264744 68.65104549 99.96890318 73.27068292 106 78 C115.18797418 85.20133088 124.57627202 92.11169465 134 99 C137.43971327 101.51782859 140.87663817 104.03941933 144.3125 106.5625 C145.09488037 107.13419922 145.87726074 107.70589844 146.68334961 108.29492188 C147.42335205 108.83826172 148.16335449 109.38160156 148.92578125 109.94140625 C149.56942627 110.41263916 150.21307129 110.88387207 150.8762207 111.36938477 C151.57706787 111.90748779 152.27791504 112.44559082 153 113 C154.52963127 114.02330917 154.52963127 114.02330917 156.09016418 115.06729126 C158.90448799 117.44022034 158.99592833 117.97796852 159.7215271 121.90412903 C159.73882782 123.45403292 159.72316642 125.00452415 159.68115234 126.55395508 C159.68246658 127.82789124 159.68246658 127.82789124 159.68380737 129.12756348 C159.67963776 131.92583222 159.63301755 134.72168305 159.5859375 137.51953125 C159.57474308 139.46293325 159.56620406 141.40635222 159.56021118 143.34977722 C159.53733221 148.45806858 159.47841675 153.56533186 159.4119873 158.67321777 C159.35054482 163.8881235 159.32319195 169.1031958 159.29296875 174.31835938 C159.22867283 184.54602395 159.12630437 194.77292639 159 205 C155.9428846 203.54191767 153.96341075 202.15914603 151.671875 199.6484375 C151.04466553 198.96966553 150.41745605 198.29089355 149.77124023 197.59155273 C149.10423096 196.86009033 148.43722168 196.12862793 147.75 195.375 C141.48273887 188.59795818 135.08372862 181.99388442 128.49316406 175.53076172 C125.43250261 172.51081329 122.48950363 169.4573633 119.69140625 166.19140625 C115.23458889 161.02340128 110.35703521 156.28833599 105.5 151.5 C100.07925237 146.1559249 94.76647975 140.81934589 89.81445312 135.03710938 C86.07335193 130.83692794 82.00549456 126.94571106 78 123 C76.26834421 121.29418982 74.53913574 119.58589134 72.8125 117.875 C72.05582031 117.12992188 71.29914063 116.38484375 70.51953125 115.6171875 C68.49176779 113.51082856 66.57321677 111.37519808 64.6640625 109.1640625 C61.13128873 105.09550134 57.39593093 101.28387107 53.5625 97.5 C52.87873291 96.82001953 52.19496582 96.14003906 51.49047852 95.43945312 C49.32942945 93.29049074 47.16515274 91.14482721 45 89 C42.14283983 86.16966163 39.28916546 83.33587327 36.4375 80.5 C35.79562744 79.86642578 35.15375488 79.23285156 34.49243164 78.58007812 C31.39801976 75.50221822 28.42002595 72.37871741 25.57006836 69.07226562 C21.72742047 64.62316002 17.61109549 60.48479532 13.44140625 56.34375 C12.65225327 55.55601196 11.86310028 54.76827393 11.05003357 53.95666504 C8.55654988 51.46872898 6.05959216 48.98431376 3.5625 46.5 C1.85979413 44.8023159 0.15731793 43.10440142 -1.54492188 41.40625 C-5.69396412 37.2681672 -9.84585576 33.13296065 -14 29 C-12.72287446 24.89306101 -11.18709006 21.18406415 -9.1796875 17.3828125 C-8.64472656 16.36445312 -8.10976563 15.34609375 -7.55859375 14.296875 C-7.00300781 13.25015625 -6.44742187 12.2034375 -5.875 11.125 C-5.31167969 10.05507813 -4.74835938 8.98515625 -4.16796875 7.8828125 C-2.78265261 5.25305983 -1.39322404 2.62556917 0 0 Z " fill="#CBA146" transform="translate(349,520)"/>
<path d="M0 0 C9.36593798 -1.06700559 9.36593798 -1.06700559 12.90234375 1.2421875 C14.02061571 2.42881349 15.10291334 3.64990468 16.15625 4.89453125 C18.25090183 7.28651714 20.51217632 9.14571675 23 11.125 C28.20308594 15.31597881 33.28560834 19.62653954 38.27758789 24.06762695 C41.36699015 26.80087934 44.449926 29.37179121 47.84765625 31.71484375 C56.4032635 37.79218094 56.4032635 37.79218094 57.54980469 42.03417969 C58.09594299 46.7652858 57.68923573 51.30494976 57 56 C57.87483032 56.40400024 57.87483032 56.40400024 58.76733398 56.81616211 C61.0126179 58.00669045 62.77489133 59.31494298 64.72265625 60.94140625 C65.42028076 61.52035645 66.11790527 62.09930664 66.83666992 62.69580078 C67.93845581 63.61981689 67.93845581 63.61981689 69.0625 64.5625 C70.60141521 65.84262501 72.14047754 67.12257316 73.6796875 68.40234375 C74.42444336 69.02351074 75.16919922 69.64467773 75.93652344 70.28466797 C78.5036396 72.4186668 81.09403889 74.52313525 83.6875 76.625 C88.45860468 80.52007484 93.12858176 84.52560965 97.79394531 88.54589844 C102.32938792 92.44662896 106.93432721 96.24816293 111.578125 100.01953125 C114.7662865 102.62662461 117.8878767 105.30282648 121 108 C119.3875552 112.23469329 117.44442797 116.27829749 115.4375 120.3359375 C114.72001352 121.79714312 114.00282127 123.25849324 113.28588867 124.7199707 C112.7254335 125.86086655 112.7254335 125.86086655 112.15365601 127.02481079 C106.15084018 139.25354527 100.26194617 151.47985149 95.04492188 164.06982422 C93.08649806 168.74937912 91.12684735 172.98164062 88 177 C87.34 177 86.68 177 86 177 C86.04640625 177.81082031 86.0928125 178.62164063 86.140625 179.45703125 C86.54953671 192.00185834 83.43585931 200.70477041 75 210 C74.21496094 210.76699219 73.42992187 211.53398438 72.62109375 212.32421875 C69.64888742 215.35843833 67.08476804 218.57440545 64.5 221.9375 C61.07717449 226.36224502 57.60531743 230.72195123 54 235 C51.11996634 233.64650435 48.63375836 232.10215936 46.0859375 230.19921875 C45.33328613 229.64024902 44.58063477 229.0812793 43.80517578 228.50537109 C43.00321777 227.90547363 42.20125977 227.30557617 41.375 226.6875 C39.67246049 225.42238878 37.96931985 224.15808619 36.265625 222.89453125 C34.96141602 221.92700928 34.96141602 221.92700928 33.63085938 220.93994141 C28.74483342 217.33708671 23.81168848 213.79943907 18.87646484 210.2644043 C15.16941793 207.60095218 11.53233955 204.8951332 8 202 C9.2874148 198.42115127 10.79266076 195.69098667 13.15234375 192.71484375 C14.06983398 191.54791992 14.06983398 191.54791992 15.00585938 190.35742188 C15.64330078 189.55884766 16.28074219 188.76027344 16.9375 187.9375 C18.19678209 186.34258016 19.45590228 184.74753247 20.71484375 183.15234375 C21.27292725 182.45101318 21.83101074 181.74968262 22.40600586 181.02709961 C24.04599671 179.04347757 24.04599671 179.04347757 25.24853516 176.81518555 C27.85211118 174.11688784 30.74473851 174.11729954 34.30859375 173.8046875 C35.03055435 173.72630646 35.75251495 173.64792542 36.49635315 173.56716919 C38.8086578 173.31939836 41.1225303 173.09634592 43.4375 172.875 C46.45767953 172.56601215 49.47684349 172.24760744 52.49609375 171.9296875 C53.23330658 171.85409607 53.97051941 171.77850464 54.73007202 171.70062256 C59.93468729 171.15491229 65.06218119 170.36344785 70.21508789 169.44580078 C74.78645692 168.71402908 79.38549053 168.34517984 84 168 C85.88447432 163.80720634 87.75369279 159.60806768 89.60913086 155.40234375 C90.24235477 153.97276578 90.87969906 152.54500549 91.52124023 151.11914062 C92.44304975 149.06845362 93.34981053 147.01167174 94.25390625 144.953125 C94.54342667 144.31755676 94.83294708 143.68198853 95.13124084 143.02716064 C96.20582257 140.54932311 97.02741266 138.53478522 96.88769531 135.80908203 C95.75155312 133.49367673 94.34858181 131.94515734 92.54296875 130.1015625 C91.84236328 129.37453125 91.14175781 128.6475 90.41992188 127.8984375 C89.68322266 127.14820313 88.94652344 126.39796875 88.1875 125.625 C86.73932882 124.14207271 85.29520978 122.65517581 83.85546875 121.1640625 C83.21246826 120.50873535 82.56946777 119.8534082 81.90698242 119.17822266 C80 117 80 117 76 111 C87.88 110.67 99.76 110.34 112 110 C101.0310993 100.55154098 89.9618334 91.29076048 78.55395508 82.37573242 C73.19088981 78.17465248 67.88300094 73.90579259 62.64355469 69.55126953 C59.07531877 66.60003741 55.50519171 64.06571392 51.5625 61.625 C49.46484375 60.0625 49.46484375 60.0625 48 58 C47.62890625 54.5625 47.62890625 54.5625 47.625 50.625 C47.6428043 45.01338279 47.6428043 45.01338279 44.87109375 40.34375 C41.99975498 38.07543231 39.03668017 36.04008629 36 34 C34.30630629 32.53058536 32.63852394 31.0306917 31 29.5 C27.54944311 26.3506822 24.01754504 23.36257405 20.375 20.4375 C16.27338313 17.12154496 12.52155177 13.64627569 8.859375 9.85546875 C6.98886633 7.98888972 5.03657203 6.3072085 3 4.625 C2.01 3.75875 1.02 2.8925 0 2 C0 1.34 0 0.68 0 0 Z " fill="#50BBC3" transform="translate(608,355)"/>
<path d="M0 0 C5.14939664 1.13226499 10.29662735 2.27368522 15.44140625 3.42675781 C17.11819261 3.80243476 18.79526662 4.17683061 20.47265625 4.54980469 C22.79582167 5.06826721 25.11685038 5.59540482 27.4375 6.125 C28.15220459 6.28323242 28.86690918 6.44146484 29.60327148 6.60449219 C32.91379857 7.36873728 35.13663302 8.09108868 38 10 C38.45959786 11.91741732 38.91444424 13.83622301 39.33447266 15.76269531 C40.51604477 19.73478878 42.88364202 22.96874119 45.1875 26.375 C46.8722066 28.88724178 48.45800382 31.39322116 50 34 C49.505 34.99 49.505 34.99 49 36 C48.32453125 35.38511719 47.6490625 34.77023437 46.953125 34.13671875 C46.06109375 33.32847656 45.1690625 32.52023437 44.25 31.6875 C43.36828125 30.88699219 42.4865625 30.08648437 41.578125 29.26171875 C40.72734375 28.51535156 39.8765625 27.76898438 39 27 C38.071875 26.13375 38.071875 26.13375 37.125 25.25 C34.06181232 23.4481249 31.27410604 23.53008145 27.75 23.3125 C21.37378647 22.6892726 17.84633133 21.1743107 13.69921875 16.2265625 C13.13847656 15.49179687 12.57773437 14.75703125 12 14 C10.77917797 12.57613599 9.55019068 11.15922564 8.3125 9.75 C7.75046875 9.09257812 7.1884375 8.43515625 6.609375 7.7578125 C4.60690098 5.57064428 2.32462637 3.83152381 0 2 C0 1.34 0 0.68 0 0 Z " fill="#50BBC4" transform="translate(594,395)"/>
<path d="M0 0 C4.54802349 3.35384973 9.04560057 6.77277651 13.5 10.25 C14.3559375 10.91515625 15.211875 11.5803125 16.09375 12.265625 C16.7228125 12.83796875 17.351875 13.4103125 18 14 C18 14.66 18 15.32 18 16 C18.639375 16.268125 19.27875 16.53625 19.9375 16.8125 C22 18 22 18 23 21 C23.06937062 23.22818441 23.08457084 25.45834524 23.0625 27.6875 C23.05347656 28.86699219 23.04445313 30.04648437 23.03515625 31.26171875 C23.02355469 32.16535156 23.01195312 33.06898438 23 34 C23.66 34 24.32 34 25 34 C26.1712848 35.14991099 27.33708853 36.30593634 28.47460938 37.48925781 C31.36412587 40.35102607 34.58185515 42.83125037 37.75 45.375 C38.81408081 46.23544922 38.81408081 46.23544922 39.8996582 47.11328125 C43.62839793 50.12116824 47.38342727 53.08760705 51.1875 56 C54.38517964 58.45836649 57.14577055 61.14577055 60 64 C62.63968937 66.10848253 65.30306344 68.18029515 67.98828125 70.23046875 C68.65214844 70.81441406 69.31601562 71.39835937 70 72 C70 72.66 70 73.32 70 74 C70.70511719 74.23203125 71.41023437 74.4640625 72.13671875 74.703125 C75.5815178 76.26338869 77.9804081 78.24775013 80.8125 80.75 C81.78832031 81.59046875 82.76414062 82.4309375 83.76953125 83.296875 C86 86 86 86 86.48046875 89.0625 C85.97374313 92.16052984 85.27781393 93.6967566 83.5 96.25 C80.48916296 100.95088237 78.21346946 105.76813409 76 110.875 C73.28026189 117.14357018 70.40254936 123.27001716 67.2890625 129.35546875 C66.09242708 131.81038445 65.0865204 134.25820014 64.125 136.8125 C62.73108322 140.5002039 60.99142988 143.81826821 59.02197266 147.23193359 C54.76124348 154.66950542 52.80944032 161.12625674 51.765625 169.63671875 C50.9222526 173.34153323 49.91948039 174.65610822 47 177 C47.309375 176.113125 47.61875 175.22625 47.9375 174.3125 C49.57510414 168.69122053 49.66774411 162.81447802 50 157 C50.66 157 51.32 157 52 157 C52.27199219 156.30132813 52.54398438 155.60265625 52.82421875 154.8828125 C57.14337769 144.29298094 62.41103523 134.04693095 67.375 123.75 C67.93445313 122.58766846 68.49390625 121.42533691 69.0703125 120.2277832 C71.64880951 114.87149409 74.233051 109.51836076 76.83984375 104.17578125 C77.66428154 102.47146011 78.48851539 100.76704029 79.3125 99.0625 C79.69132324 98.29454102 80.07014648 97.52658203 80.46044922 96.73535156 C82.17156055 93.17656515 83 91.01959199 83 87 C80.94424819 84.92624161 78.94851315 83.13529617 76.6875 81.3125 C76.048125 80.78140625 75.40875 80.2503125 74.75 79.703125 C72.8428596 78.123358 70.92348994 76.55979411 69 75 C68.04738281 74.22011719 67.09476563 73.44023437 66.11328125 72.63671875 C64.35569859 71.19965191 62.59522602 69.76611305 60.83203125 68.3359375 C57.57327531 65.6480257 54.38130226 62.88938347 51.1875 60.125 C46.44245129 56.02768602 41.62037661 52.05654098 36.6875 48.1875 C36.10677734 47.72384033 35.52605469 47.26018066 34.92773438 46.7824707 C32.39324495 44.77624129 29.94642412 42.96835491 27.15625 41.3203125 C24.50820467 39.70299367 22.77847663 38.55570292 21 36 C20.82370246 33.39021842 20.78552026 30.97355228 20.875 28.375 C20.99889213 24.44016759 20.96494973 21.33665402 18.60058594 18.06152344 C14.5020595 13.83819141 9.78707381 10.39711088 5 7 C2.015625 4.828125 2.015625 4.828125 0 3 C0 2.01 0 1.02 0 0 Z " fill="#F4FAF9" transform="translate(644,375)"/>
<path d="M0 0 C1.12994728 3.38984183 0.9624943 3.73318697 -0.44140625 6.80859375 C-0.77495117 7.54980469 -1.10849609 8.29101562 -1.45214844 9.0546875 C-1.81856445 9.84101563 -2.18498047 10.62734375 -2.5625 11.4375 C-2.93020508 12.24574219 -3.29791016 13.05398438 -3.67675781 13.88671875 C-6.22334579 19.4445198 -8.92644887 24.91305915 -11.7109375 30.35546875 C-12.90757292 32.81038445 -13.9134796 35.25820014 -14.875 37.8125 C-16.26891678 41.5002039 -18.00857012 44.81826821 -19.97802734 48.23193359 C-24.23875652 55.66950542 -26.19055968 62.12625674 -27.234375 70.63671875 C-28.0777474 74.34153323 -29.08051961 75.65610822 -32 78 C-31.690625 77.113125 -31.38125 76.22625 -31.0625 75.3125 C-29.42489586 69.69122053 -29.33225589 63.81447802 -29 58 C-28.34 58 -27.68 58 -27 58 C-26.72800781 57.30132813 -26.45601562 56.60265625 -26.17578125 55.8828125 C-21.3071334 43.94572906 -15.3244072 32.40327905 -9.70776367 20.80810547 C-6.37507495 13.91395998 -3.13168711 6.98782963 0 0 Z " fill="#E8F5F4" transform="translate(723,474)"/>
<path d="M0 0 C4.2232662 0.5651387 6.91944693 2.0096707 10.4375 4.375 C14.19658449 6.88818593 17.94594155 9.00094734 22 11 C24.47683944 12.36387003 26.92623829 13.77396636 29.375 15.1875 C30.33599609 15.73954102 30.33599609 15.73954102 31.31640625 16.30273438 C32.87846119 17.20033311 34.43935295 18.0999556 36 19 C36 19.66 36 20.32 36 21 C36.78375 21.144375 37.5675 21.28875 38.375 21.4375 C41 22 41 22 43 23 C43 23.66 43 24.32 43 25 C44.2065625 25.309375 44.2065625 25.309375 45.4375 25.625 C49.34445864 27.13294895 52.3198239 29.16270419 55.7421875 31.53515625 C58.71587376 33.46445097 61.69593925 34.73461503 65 36 C65 36.66 65 37.32 65 38 C66.65 38.33 68.3 38.66 70 39 C70.33 39.99 70.66 40.98 71 42 C66.79151007 40.44866628 62.94968469 38.40144535 59.0625 36.1875 C58.36995117 35.79498047 57.67740234 35.40246094 56.96386719 34.99804688 C42.68788057 26.86718657 28.60432649 18.40217303 14.54260254 9.90771484 C13.26554164 9.13671443 11.98779141 8.36685463 10.70935059 7.59814453 C8.92119194 6.52219187 7.13599595 5.44149142 5.3515625 4.359375 C4.31854004 3.73514648 3.28551758 3.11091797 2.22119141 2.46777344 C1.48819824 1.9834082 0.75520508 1.49904297 0 1 C0 0.67 0 0.34 0 0 Z " fill="#EBEDEE" transform="translate(542,258)"/>
<path d="M0 0 C0 4.01744904 -1.40717217 4.86174733 -4.125 7.75 C-7.38676906 11.13012676 -7.38676906 11.13012676 -10.19091797 14.87329102 C-12.4051904 18.13358211 -13.85859327 19.7744857 -17.81982422 20.55712891 C-21.19769781 20.68918464 -24.49922788 20.61086076 -27.875 20.4375 C-29.0403125 20.40591797 -30.205625 20.37433594 -31.40625 20.34179688 C-34.27342891 20.25954174 -37.13540386 20.14466052 -40 20 C-40 19.67 -40 19.34 -40 19 C-32.08 19 -24.16 19 -16 19 C-15.34 17.68 -14.68 16.36 -14 15 C-12.958064 13.73837262 -11.8680816 12.5154315 -10.7421875 11.328125 C-10.11699219 10.66425781 -9.49179687 10.00039063 -8.84765625 9.31640625 C-8.19667969 8.63449219 -7.54570313 7.95257812 -6.875 7.25 C-6.21628906 6.55261719 -5.55757812 5.85523438 -4.87890625 5.13671875 C-3.25672226 3.42049511 -1.63034621 1.70846565 0 0 Z " fill="#D9DEE2" transform="translate(565,727)"/>
<path d="M0 0 C0.33 0 0.66 0 1 0 C1.08107646 2.75059381 1.14052813 5.49879021 1.1875 8.25 C1.22520508 9.41595703 1.22520508 9.41595703 1.26367188 10.60546875 C1.30906596 14.14620771 1.33187823 16.3904659 -0.38671875 19.546875 C-2 21 -2 21 -4 21 C-2.125 17.125 -2.125 17.125 -1 16 C-0.76321284 13.30764224 -0.57801975 10.63501844 -0.4375 7.9375 C-0.39431641 7.17888672 -0.35113281 6.42027344 -0.30664062 5.63867188 C-0.20026367 3.75934562 -0.09960066 1.87969756 0 0 Z " fill="#EEEFF1" transform="translate(593,681)"/>
<path d="M0 0 C1 3 1 3 0.00390625 5.48046875 C-0.47175781 6.37378906 -0.94742187 7.26710938 -1.4375 8.1875 C-1.91058594 9.08855469 -2.38367188 9.98960937 -2.87109375 10.91796875 C-3.24363281 11.60503906 -3.61617188 12.29210937 -4 13 C-4.86443295 10.5653629 -5.12994709 9.36863937 -4.2578125 6.89453125 C-3.88398438 6.20746094 -3.51015625 5.52039063 -3.125 4.8125 C-2.57199219 3.77029297 -2.57199219 3.77029297 -2.0078125 2.70703125 C-1 1 -1 1 0 0 Z " fill="#F8F4EA" transform="translate(347,521)"/>
<path d="M0 0 C1.1875 1.5625 1.1875 1.5625 2 4 C0.625 7.75 0.625 7.75 -1 11 C-2.60080151 6.99799622 -1.29279692 3.95443764 0 0 Z " fill="#F4EFE4" transform="translate(597,561)"/>
<path d="M0 0 C4.21912747 0.4794463 6.79663178 1.16625119 10 4 C9.67 4.66 9.34 5.32 9 6 C6.03 4.35 3.06 2.7 0 1 C0 0.67 0 0.34 0 0 Z " fill="#E3E6E8" transform="translate(563,271)"/>
<path d="M0 0 C3.57104439 1.87949705 5.54744301 3.17053157 7 7 C4.625 6.3125 4.625 6.3125 2 5 C0.6875 2.375 0.6875 2.375 0 0 Z " fill="#E0E4E8" transform="translate(310,258)"/>
<path d="M0 0 C2.475 0.99 2.475 0.99 5 2 C5 2.66 5 3.32 5 4 C6.32 4.33 7.64 4.66 9 5 C8.01 5.33 7.02 5.66 6 6 C2.8125 4.1875 2.8125 4.1875 0 2 C0 1.34 0 0.68 0 0 Z " fill="#F4F4F5" transform="translate(573,275)"/>
</svg>
